<svg width="145" height="111" viewBox="0 0 145 111" fill="none" xmlns="http://www.w3.org/2000/svg">
<path d="M65.8663 0.582933C66.5101 0.565722 67.1539 0.544209 67.7977 0.526998C72.1876 0.415128 76.5733 0.251625 80.9632 0.208598C87.4099 0.144057 93.5973 1.30148 99.3094 4.41234C101.046 5.35893 102.697 6.46472 104.399 7.47156C104.793 7.7039 105.246 7.82868 105.67 8.00509C105.743 8.08254 105.812 8.16429 105.886 8.24174C107.541 9.88967 109.195 11.5419 110.855 13.1898C110.932 13.2587 111.01 13.3275 111.088 13.3964C111.689 14.4462 112.306 15.4875 112.89 16.5503C113.43 17.5313 113.935 18.5338 114.458 19.5277C114.545 19.6439 114.631 19.7601 114.717 19.8719C115.642 22.5568 116.606 25.2288 117.461 27.9352C117.643 28.5032 117.422 29.1959 117.392 29.8327L117.634 30.0478C117.85 31.0374 118.252 32.0271 118.252 33.021C118.274 48.9238 118.243 64.8222 118.226 80.725C118.027 81.0305 117.833 81.3403 117.634 81.6458C118.235 83.4917 118.693 85.4021 119.496 87.1619C120.002 88.2677 122.517 88.414 123.925 87.1274C124.612 86.4993 125.118 85.5785 125.463 84.6964C126.85 81.194 127.071 81.3876 130.48 82.1449C134.243 82.9796 137.959 84.0037 141.705 84.9116C143.736 85.4064 144.445 86.4777 144.173 88.5904C143.671 92.4714 142.12 95.9394 139.813 99.0244C136.788 103.069 133.103 106.343 128.069 107.772C126.954 108.086 125.87 108.731 124.694 107.927C124.569 107.841 124.284 107.858 124.146 107.944C122.193 109.179 120.136 108.615 118.027 108.508C114.596 108.327 111.606 106.928 108.504 105.784C108.323 105.659 108.137 105.534 107.955 105.41L107.86 105.444L107.77 105.401C107.77 105.315 107.77 105.229 107.77 105.143C107.761 105.229 107.752 105.315 107.748 105.401C107.592 105.345 107.437 105.289 107.281 105.233C107.087 105.117 106.892 105.001 106.702 104.88C105.043 103.585 103.388 102.29 101.643 100.931C100.861 102.337 99.5644 102.385 98.173 102.329C96.5052 102.26 94.8331 102.355 93.1652 102.294C92.1412 102.256 91.7264 102.57 91.7221 103.654C91.7134 105.328 91.7437 107.058 91.3116 108.641C91.1431 109.269 89.7993 109.936 88.9611 109.97C85.3056 110.112 81.6416 110.039 77.9775 110.031C74.0499 110.022 70.118 109.996 66.1903 109.979C65.849 109.687 65.5076 109.394 65.1663 109.097C65.0756 109.076 64.9891 109.063 64.8941 109.05C64.7861 108.942 64.6824 108.83 64.5743 108.723C64.4447 108.422 64.3108 108.116 64.1811 107.815C64.0774 107.595 63.9737 107.372 63.87 107.152V87.093C61.0831 88.5516 58.3048 88.0654 55.6086 88.6119C52.7655 89.1884 49.728 88.8012 46.7725 88.8356C46.6861 88.926 46.5997 89.0206 46.5133 89.111C46.5133 93.5084 46.5133 97.9014 46.5133 102.299C46.5781 102.738 46.6472 103.177 46.7121 103.615C45.7096 105.22 44.3831 106.077 42.3653 105.887C40.6629 105.728 38.9346 105.853 37.2711 105.853C37.1674 106.029 37.0766 106.115 37.0723 106.201C36.9859 109.583 36.5279 110.031 33.1447 110.031C25.8122 110.031 18.4798 109.953 11.1474 110.078C9.13819 110.112 8.01909 108.8 8.0407 106.916C8.11415 100.69 8.07094 94.4635 8.06662 88.2375C8.06662 87.8718 8.01477 87.5061 7.98453 87.136C4.09579 87.8331 1.99155 86.9812 0.824925 84.0553C0.457655 83.1302 0.518147 82.0072 0.487901 80.9746C0.362597 76.4912 0.245935 72.0078 0.189764 67.5243C0.16816 65.7731 0.306427 64.0176 0.379881 62.2621C0.414447 61.4102 0.487901 60.5626 0.487901 59.7106C0.479259 55.2789 1.36503 50.9891 2.44091 46.7079C4.01801 40.4431 7.0858 34.9099 10.6505 29.6046C10.914 29.2088 11.2813 28.8818 11.5967 28.5247C11.6659 28.4472 11.7393 28.3655 11.8085 28.288C14.5306 25.5773 17.2484 22.8623 19.9705 20.1516L20.2211 19.9279C24.4425 16.7181 28.9967 14.1063 34.0175 12.3293C35.0631 11.9593 36.0915 11.5419 37.1241 11.1504C37.3186 11.0643 37.5087 10.9783 37.7031 10.8922C40.3561 10.5437 43.0048 10.1564 45.6621 9.86816C47.4812 9.67023 49.3175 9.61 51.1452 9.46371C51.2576 9.4551 51.3526 9.23566 51.4606 9.11519C51.5514 9.15391 51.6421 9.18833 51.7329 9.22706C51.6594 9.17112 51.5816 9.11949 51.5082 9.06355C52.2384 7.48877 53.7939 7.01977 55.1852 6.32704C55.6259 6.00433 56.0666 5.68163 56.5074 5.35893C58.1233 2.93221 60.7461 2.26959 63.3083 1.4822C63.9392 1.28858 64.5571 1.04332 65.1836 0.823884C65.4083 0.742133 65.6329 0.660381 65.8576 0.57863L65.8663 0.582933ZM65.8663 80.7293C68.2902 81.5124 69.0205 81.9728 69.0593 85.0019C69.1285 90.1479 69.0766 95.2983 69.0766 100.444C69.0766 101.877 69.0766 103.306 69.0766 104.773H86.6278C86.6278 104.123 86.6278 103.551 86.6278 102.974C86.6278 90.6385 86.5976 78.3069 86.684 65.9711C86.6926 65.003 87.2716 63.6089 88.0234 63.1829C88.9956 62.6322 90.3005 62.8387 91.3116 63.9703C93.0356 65.9022 94.8849 67.7438 96.8422 69.439C98.0391 70.476 99.5341 71.173 100.895 72.025C100.887 72.5628 100.878 73.1006 100.869 73.6385C100.848 75.8027 100.735 77.9713 100.83 80.1312C100.947 82.8075 100.977 85.5354 101.535 88.1386C101.997 90.2942 103.177 92.2993 104.036 94.3689C104.33 94.5926 104.624 94.8121 104.918 95.0358C104.996 95.1133 105.009 95.1993 104.948 95.2897C105.056 95.5866 105.16 95.8877 105.268 96.1846C106.797 97.5873 108.154 99.274 109.9 100.315C111.866 101.49 114.147 102.204 116.364 102.893C117.491 103.245 118.706 102.621 120.002 103.448C120.853 103.99 122.456 103.465 123.696 103.254C124.301 103.151 124.837 102.677 125.653 102.239C125.749 102.251 126.22 102.316 126.686 102.385C126.742 102.51 126.799 102.634 126.859 102.759C126.911 102.63 126.963 102.501 127.015 102.372C127.408 102.247 127.823 102.165 128.194 101.998C133.651 99.502 136.892 95.1692 138.793 89.438C136.17 88.8657 133.682 88.5258 131.348 87.7341C129.966 87.2651 129.607 88.0095 129.279 88.7797C127.365 93.2975 120.615 93.9343 117.301 92.2391C117.176 92.1573 117.051 92.0755 116.925 91.9938C116.295 91.357 115.664 90.7202 115.033 90.0834C114.946 89.9715 114.86 89.8554 114.774 89.7435C114.19 88.8356 113.724 87.9105 114.411 86.8478C114.385 86.6326 114.359 86.4132 114.329 86.1981C114.35 86.0389 114.445 85.8323 114.38 85.7291C113.184 83.8488 113.037 81.7534 113.037 79.6149C113.037 65.5236 113.045 51.4365 113.028 37.3452C113.028 35.6542 112.834 33.9633 112.79 32.2723C112.769 31.4634 113.136 30.5771 112.907 29.8585C112.099 27.3543 111.101 24.9104 110.176 22.445C110.09 22.3288 110.003 22.2126 109.917 22.0964C108.202 18.3703 105.493 15.4359 102.451 12.7639C102.321 12.7639 102.196 12.7639 102.066 12.7639C101.751 12.4111 101.435 12.0582 101.12 11.7011C101.003 11.6237 100.891 11.5505 100.774 11.4731C100.035 10.9912 99.3181 10.4662 98.549 10.036C96.1595 8.69783 93.9214 7.01547 91.0912 6.64974C90.4561 6.56799 89.7993 6.63683 89.0561 6.63683C90.6419 8.70643 92.098 10.5007 93.4331 12.3766C94.2973 13.59 93.7701 15.9264 92.6338 16.5201C91.3764 17.1784 89.9419 16.5589 89.0086 15.0701C88.3648 14.0504 87.5914 13.1124 86.8741 12.1357C86.5457 11.8044 86.2173 11.4731 85.889 11.1461C83.7026 9.73908 81.6416 8.07393 79.3083 6.98105C75.0826 5.00611 70.5846 5.40626 66.1212 6.18075C62.8417 6.7487 60.0936 8.29337 57.5703 10.4404C56.5419 11.3139 55.5525 12.0884 55.1117 13.3921C54.8093 13.6976 54.5068 13.9988 54.2087 14.3042C53.5433 15.4445 52.8822 16.589 52.2168 17.7292C50.3804 20.8702 49.1749 24.1875 49.3607 27.8922C49.4169 28.9894 49.3866 30.1124 49.6156 31.1751C49.9786 32.879 50.523 34.5485 50.9897 36.2308C51.1798 36.5664 51.3699 36.8977 51.5557 37.2333C52.8951 39.2427 53.997 41.4758 55.6259 43.2184C59.3418 47.2027 64.1725 48.8549 69.5692 49.2121C70.7056 49.2852 72.1531 48.6312 73.1036 50.2705C73.5616 51.0579 74.1147 51.4968 73.7085 52.4993C73.2462 53.6352 72.6283 54.2978 71.3019 54.3237C67.1582 54.4054 63.1744 53.6309 59.2813 52.2885C59.264 52.1938 59.2468 52.0949 59.2295 52.0002C59.2079 52.0949 59.1819 52.1938 59.1603 52.2885C58.8752 52.2239 58.5295 52.2411 58.3221 52.082C57.4839 51.4236 56.7882 50.4943 55.8549 50.064C53.6686 49.0528 52.139 47.3748 50.6483 45.6107C50.3588 45.3956 50.065 45.1761 49.7755 44.961C49.6373 44.5264 49.499 44.0918 49.3607 43.6573C49.27 43.5583 49.1792 43.455 49.0885 43.3561C46.9583 40.4561 45.796 37.1129 44.8714 33.7137C44.098 30.8653 43.9727 27.9524 44.4566 24.9577C44.906 22.1739 45.4849 19.489 46.7553 16.9676C46.7553 16.8428 46.7553 16.7138 46.7553 16.589C46.9799 15.9995 47.2046 15.4057 47.4207 14.8378C45.5152 15.0271 43.7393 15.1261 41.9375 15.5176C36.9643 16.6062 32.3367 18.366 28.0029 20.9562C22.9475 23.9767 18.4323 27.6899 15.1657 32.5864C12.7504 36.205 10.5554 40.0473 8.84437 44.0359C7.5438 47.0693 7.09012 50.4813 6.39014 53.7514C6.14818 54.883 6.37718 56.1093 6.26484 57.2796C6.16114 58.3467 5.72474 59.3965 5.70313 60.4593C5.62968 64.0521 5.67721 67.6448 5.67721 71.2376C5.67721 74.7744 5.67721 78.3112 5.67721 81.8997C7.28888 81.3618 8.166 80.5916 8.13576 78.6597C8.01045 70.8804 8.07959 63.0926 8.08823 55.3133C8.08823 54.7281 7.96292 54.0182 8.23946 53.5836C8.68882 52.8736 9.3283 52.0174 10.0585 51.8066C11.2424 51.4624 12.5603 51.6947 13.0183 53.1619C13.2646 53.9536 13.3769 54.8185 13.3769 55.6489C13.3985 71.4312 13.3899 87.2092 13.3899 102.992V104.738H31.9824C31.9824 97.8756 31.9564 91.1117 32.0213 84.3522C32.0299 83.5648 32.5398 82.786 32.8206 82.0029C32.9373 81.9212 33.0539 81.8394 33.1749 81.7577C33.8187 81.6845 34.4884 81.4479 35.0977 81.5598C38.6969 82.2052 42.2573 83.311 45.8781 83.5304C50.7391 83.8273 55.6864 84.0381 60.4652 82.6483C62.2238 82.1363 63.9089 81.3747 65.6243 80.7293C65.7021 80.7293 65.7798 80.7293 65.8619 80.7293H65.8663ZM92.0764 97.5529C93.4158 97.5529 94.6645 97.3937 95.8528 97.6002C96.9848 97.7938 97.0151 97.3937 96.7904 96.5719C96.6262 95.9781 96.3583 95.3972 96.2892 94.7949C95.8917 91.3871 96.1682 87.9536 95.7231 84.52C95.3602 81.7147 95.8398 78.806 95.9176 75.9447C95.9262 75.6693 95.8225 75.2692 95.6238 75.1229C94.4874 74.271 93.3078 73.4793 92.0764 72.6273V97.5572V97.5529ZM41.2117 100.35V88.1902C39.937 87.9493 38.7185 87.7169 37.4223 87.4717V100.35H41.2117ZM88.4296 6.31413C88.3518 6.28401 88.274 6.24098 88.1919 6.23238C88.166 6.23238 88.0926 6.32273 88.1012 6.34425C88.1358 6.41309 88.1963 6.47333 88.2481 6.53357C88.3086 6.46042 88.3691 6.38728 88.4339 6.31413H88.4296Z" fill="#916AE9"/>
<path d="M92.6726 31.9625C94.2411 30.0736 95.9219 28.0471 98.1989 31.1364C98.8384 32.0013 98.2983 34.0235 97.1576 34.4753C96.2416 34.8367 94.8806 34.9787 94.1028 34.5398C93.3596 34.1182 93.1133 32.8231 92.6726 31.9625Z" fill="#916AE9"/>
</svg>
