<svg width="133" height="50" viewBox="0 0 133 50" fill="none" xmlns="http://www.w3.org/2000/svg">
<g clip-path="url(#clip0_660_17728)">
<path d="M27.5289 -0.000553131L18.603 8.92482L21.6277 11.9499L26.2806 7.297V29.9375H30.5535V-0.000553131H27.5289Z" fill="#1A1A1A"/>
<path d="M0.614746 -0.000553131V29.9375H4.89329V7.30262L15.5833 17.9931L18.6084 14.9685L3.63938 -0.000553131H0.614746Z" fill="#1A1A1A"/>
<path d="M63.529 17.108C64.26 18.368 64.6761 19.8294 64.6761 21.3865C64.6761 22.9436 64.26 24.4051 63.529 25.659C62.0554 28.2146 59.2861 29.9375 56.119 29.9375H43.289C40.1219 29.9375 37.3527 28.2146 35.879 25.659C35.148 24.4051 34.7319 22.9436 34.7319 21.3865H39.0105C39.0105 23.7458 40.9241 25.659 43.289 25.659H56.119C58.4778 25.659 60.3975 23.7458 60.3975 21.3865C60.3975 19.0216 58.4778 17.108 56.119 17.108H43.289C41.12 17.108 39.1412 16.2997 37.6319 14.9685C36.9366 14.3565 36.3424 13.6316 35.879 12.8294C35.148 11.5694 34.7319 10.108 34.7319 8.5509C34.7319 6.99383 35.148 5.53188 35.879 4.27845C37.3527 1.72285 40.1219 -8.96454e-05 43.289 -8.96454e-05H56.119C59.2861 -8.96454e-05 62.0554 1.72285 63.529 4.27845C64.26 5.53188 64.6761 6.99383 64.6761 8.5509H60.3975C60.3975 6.19163 58.4778 4.27845 56.119 4.27845H43.289C40.9241 4.27845 39.0105 6.19163 39.0105 8.5509C39.0105 10.9158 40.9241 12.8294 43.289 12.8294H56.119C58.2876 12.8294 60.2724 13.6377 61.7761 14.9685C62.4715 15.5809 63.0656 16.3058 63.529 17.108Z" fill="#1A1A1A"/>
<path d="M97.6462 17.107C98.3772 18.367 98.7933 19.8285 98.7933 21.3855C98.7933 22.9426 98.3772 24.4041 97.6462 25.658C96.1725 28.2136 93.4033 29.9365 90.2362 29.9365H77.4062C74.2391 29.9365 71.4699 28.2136 69.9962 25.658C69.2652 24.4041 68.8491 22.9426 68.8491 21.3855H73.1277C73.1277 23.7448 75.0413 25.658 77.4062 25.658H90.2362C92.595 25.658 94.5147 23.7448 94.5147 21.3855C94.5147 19.0206 92.595 17.107 90.2362 17.107H77.4062C75.2372 17.107 73.2584 16.2987 71.7491 14.9675C71.0538 14.3555 70.4596 13.6307 69.9962 12.8285C69.2652 11.5685 68.8491 10.107 68.8491 8.54992C68.8491 6.99285 69.2652 5.5309 69.9962 4.27747C71.4699 1.72188 74.2391 -0.00106621 77.4062 -0.00106621H90.2362C93.4033 -0.00106621 96.1725 1.72188 97.6462 4.27747C98.3772 5.5309 98.7933 6.99285 98.7933 8.54992H94.5147C94.5147 6.19066 92.595 4.27747 90.2362 4.27747H77.4062C75.0413 4.27747 73.1277 6.19066 73.1277 8.54992C73.1277 10.9148 75.0413 12.8285 77.4062 12.8285H90.2362C92.4048 12.8285 94.3896 13.6367 95.8933 14.9675C96.5886 15.5799 97.1828 16.3048 97.6462 17.107Z" fill="#1A1A1A"/>
<path d="M122.214 17.108H107.245V4.27845H122.214C125.761 4.27845 128.632 7.14846 128.632 10.6899C128.632 14.238 125.761 17.108 122.214 17.108ZM130.777 4.27845C128.822 1.68162 125.714 -8.96454e-05 122.214 -8.96454e-05H102.966V29.9375H107.245V21.3865H122.214C125.714 21.3865 128.822 19.7048 130.777 17.108C132.114 15.3194 132.91 13.097 132.91 10.6899C132.91 8.28334 132.12 6.06699 130.777 4.27845Z" fill="#1A1A1A"/>
<path d="M5.18011 44.3066V45.507H8.79312C8.50777 47.2421 6.99856 48.5732 5.18011 48.5732C3.15361 48.5732 1.51368 46.9333 1.51368 44.9068C1.51368 42.8803 3.15361 41.2404 5.18011 41.2404C6.52907 41.2404 7.71732 41.9952 8.35315 43.0705L9.5831 42.3635C8.70363 40.8365 7.06369 39.8141 5.18011 39.8141C2.36926 39.8141 0.0874023 42.0959 0.0874023 44.9068C0.0874023 47.7172 2.36926 49.999 5.18011 49.999C7.99096 49.999 10.2723 47.7172 10.2723 44.9068C10.2723 44.7048 10.2545 44.5029 10.2311 44.3066H5.18011Z" fill="#1A1A1A"/>
<path d="M17.5015 39.9164H16.0757V49.8994H22.8856V48.7013H17.5015V39.9164Z" fill="#1A1A1A"/>
<path d="M72.4038 48.7018V39.9169H70.978V49.8994H77.788V48.7018H72.4038Z" fill="#1A1A1A"/>
<path d="M58.4745 46.1637L59.9602 41.1127H61.5289L63.0143 46.1637H58.4745ZM58.9617 39.9184L55.9194 49.9014H57.3691L58.1179 47.3581H63.3708L64.1196 49.9014H65.5693L62.4974 39.9184H58.9617Z" fill="#1A1A1A"/>
<path d="M32.4396 48.5759C30.4192 48.5759 28.7732 46.9299 28.7732 44.9095C28.7732 42.8835 30.4192 41.2431 32.4396 41.2431C34.4661 41.2431 36.1061 42.8835 36.1061 44.9095C36.1061 46.9299 34.4661 48.5759 32.4396 48.5759ZM32.4396 39.8173C29.6288 39.8173 27.353 42.093 27.353 44.9095C27.353 47.7203 29.6288 49.9961 32.4396 49.9961C35.2561 49.9961 37.5319 47.7203 37.5319 44.9095C37.5319 42.093 35.2561 39.8173 32.4396 39.8173Z" fill="#1A1A1A"/>
<path d="M49.6174 47.2325C49.5879 47.678 49.4155 48.0285 49.1063 48.2783C49.0528 48.3261 48.9933 48.3617 48.9282 48.4029C48.6607 48.5875 48.3397 48.7004 47.9892 48.7004H44.834V45.4318H48.0548C48.447 45.4496 48.8036 45.6042 49.0767 45.854C49.1063 45.8718 49.1302 45.8957 49.1601 45.9252C49.4272 46.1627 49.5818 46.4837 49.6174 46.882C49.6174 46.9415 49.6235 47.0005 49.6235 47.0661C49.6235 47.1256 49.6235 47.179 49.6174 47.2325ZM44.834 41.1122H47.8051C48.1021 41.1122 48.3875 41.2012 48.6251 41.3498C48.6489 41.3615 48.6668 41.3737 48.6906 41.3854C48.7619 41.4327 48.8331 41.4805 48.8926 41.5339C48.9399 41.5756 48.9877 41.6229 49.0294 41.6763C49.0589 41.7063 49.0828 41.7419 49.1063 41.7776C49.1302 41.8071 49.154 41.8427 49.1719 41.8844C49.1836 41.8966 49.1897 41.9083 49.1957 41.9261C49.2192 41.9678 49.237 42.0212 49.2548 42.0685C49.267 42.1041 49.2787 42.1402 49.2909 42.1758C49.3087 42.2349 49.3265 42.3005 49.3382 42.36C49.356 42.4607 49.3677 42.568 49.3677 42.6748C49.3677 42.7283 49.3677 42.7817 49.3621 42.8351C49.3321 43.2512 49.1719 43.5782 48.8804 43.8219C48.8687 43.8275 48.8626 43.8397 48.8509 43.8397C48.8036 43.8809 48.7497 43.9226 48.6963 43.9582C48.6728 43.976 48.6429 43.9938 48.6133 44.006C48.3758 44.1545 48.1021 44.2375 47.8051 44.2375H44.834V41.1122ZM49.8906 44.7308C50.4613 44.2318 50.8179 43.4948 50.8179 42.6748C50.8179 42.5024 50.8001 42.33 50.7701 42.1636C50.7645 42.1458 50.7645 42.1224 50.7584 42.1041C50.6098 41.4032 50.1999 40.803 49.6292 40.4047C49.6235 40.4047 49.6114 40.393 49.5996 40.3869C49.534 40.3457 49.4689 40.31 49.3977 40.274C48.9699 40.0603 48.4526 39.9413 47.8407 39.9296C47.7756 39.9174 47.71 39.9174 47.6448 39.9174H43.4077V49.9004H47.799C47.8702 49.9004 47.9419 49.9004 48.007 49.8887H48.0309C48.12 49.8948 48.209 49.9004 48.2985 49.9004C49.8611 49.9004 51.1267 48.6287 51.1267 47.0661C51.1267 46.0915 50.6337 45.2359 49.8906 44.7308Z" fill="#1A1A1A"/>
</g>
<defs>
<clipPath id="clip0_660_17728">
<rect width="132.824" height="50" fill="white" transform="translate(0.0874023)"/>
</clipPath>
</defs>
</svg>
